<mxfile host="65bd71144e">
    <diagram name="第 1 页" id="Ik-g8sNIh_6q8OoHqGbS">
        <mxGraphModel dx="1243" dy="927" grid="1" gridSize="10" guides="1" tooltips="1" connect="1" arrows="1" fold="1" page="1" pageScale="1" pageWidth="827" pageHeight="1169" background="none" math="0" shadow="0">
            <root>
                <mxCell id="0"/>
                <mxCell id="1" parent="0"/>
                <mxCell id="hj5V9L2vQso6mufphsfm-422" value="" style="rounded=0;whiteSpace=wrap;html=1;fillColor=#999900;dashed=1;opacity=30;" parent="1" vertex="1">
                    <mxGeometry x="-670" y="54" width="210.01" height="90" as="geometry"/>
                </mxCell>
                <mxCell id="hj5V9L2vQso6mufphsfm-383" value="" style="group" parent="1" vertex="1" connectable="0">
                    <mxGeometry x="-599.99" y="94" width="30" height="40" as="geometry"/>
                </mxCell>
                <mxCell id="hj5V9L2vQso6mufphsfm-376" value="" style="whiteSpace=wrap;html=1;container=0;fillColor=default;" parent="hj5V9L2vQso6mufphsfm-383" vertex="1">
                    <mxGeometry width="30" height="40" as="geometry"/>
                </mxCell>
                <mxCell id="hj5V9L2vQso6mufphsfm-377" value="" style="edgeStyle=none;orthogonalLoop=1;jettySize=auto;html=1;rounded=0;exitX=-0.001;exitY=0.645;exitDx=0;exitDy=0;exitPerimeter=0;entryX=0.296;entryY=0.752;entryDx=0;entryDy=0;entryPerimeter=0;endArrow=none;endFill=0;" parent="hj5V9L2vQso6mufphsfm-383" edge="1">
                    <mxGeometry width="80" relative="1" as="geometry">
                        <mxPoint y="26" as="sourcePoint"/>
                        <mxPoint x="9.600000000000023" y="30.56000000000006" as="targetPoint"/>
                        <Array as="points"/>
                    </mxGeometry>
                </mxCell>
                <mxCell id="hj5V9L2vQso6mufphsfm-378" value="" style="edgeStyle=none;orthogonalLoop=1;jettySize=auto;html=1;rounded=0;exitX=-0.001;exitY=0.645;exitDx=0;exitDy=0;exitPerimeter=0;entryX=0.025;entryY=0.801;entryDx=0;entryDy=0;entryPerimeter=0;endArrow=none;endFill=0;" parent="hj5V9L2vQso6mufphsfm-383" edge="1">
                    <mxGeometry width="80" relative="1" as="geometry">
                        <mxPoint y="35.39999999999998" as="sourcePoint"/>
                        <mxPoint x="9.5" y="30.480000000000018" as="targetPoint"/>
                        <Array as="points"/>
                    </mxGeometry>
                </mxCell>
                <mxCell id="hj5V9L2vQso6mufphsfm-379" value="D" style="text;strokeColor=none;align=center;fillColor=none;html=1;verticalAlign=middle;whiteSpace=wrap;rounded=0;container=0;" parent="hj5V9L2vQso6mufphsfm-383" vertex="1">
                    <mxGeometry y="4" width="14" height="12" as="geometry"/>
                </mxCell>
                <mxCell id="hj5V9L2vQso6mufphsfm-380" value="Q" style="text;strokeColor=none;align=center;fillColor=none;html=1;verticalAlign=middle;whiteSpace=wrap;rounded=0;container=0;" parent="hj5V9L2vQso6mufphsfm-383" vertex="1">
                    <mxGeometry x="16" y="4" width="14" height="12" as="geometry"/>
                </mxCell>
                <mxCell id="hj5V9L2vQso6mufphsfm-386" value="" style="group;fillColor=#00FFFF;" parent="1" vertex="1" connectable="0">
                    <mxGeometry x="-549.99" y="94" width="30" height="40" as="geometry"/>
                </mxCell>
                <mxCell id="hj5V9L2vQso6mufphsfm-387" value="" style="whiteSpace=wrap;html=1;container=0;" parent="hj5V9L2vQso6mufphsfm-386" vertex="1">
                    <mxGeometry width="30" height="40" as="geometry"/>
                </mxCell>
                <mxCell id="hj5V9L2vQso6mufphsfm-388" value="" style="edgeStyle=none;orthogonalLoop=1;jettySize=auto;html=1;rounded=0;exitX=-0.001;exitY=0.645;exitDx=0;exitDy=0;exitPerimeter=0;entryX=0.296;entryY=0.752;entryDx=0;entryDy=0;entryPerimeter=0;endArrow=none;endFill=0;" parent="hj5V9L2vQso6mufphsfm-386" edge="1">
                    <mxGeometry width="80" relative="1" as="geometry">
                        <mxPoint y="26" as="sourcePoint"/>
                        <mxPoint x="9.600000000000023" y="30.56000000000006" as="targetPoint"/>
                        <Array as="points"/>
                    </mxGeometry>
                </mxCell>
                <mxCell id="hj5V9L2vQso6mufphsfm-389" value="" style="edgeStyle=none;orthogonalLoop=1;jettySize=auto;html=1;rounded=0;exitX=-0.001;exitY=0.645;exitDx=0;exitDy=0;exitPerimeter=0;entryX=0.025;entryY=0.801;entryDx=0;entryDy=0;entryPerimeter=0;endArrow=none;endFill=0;" parent="hj5V9L2vQso6mufphsfm-386" edge="1">
                    <mxGeometry width="80" relative="1" as="geometry">
                        <mxPoint y="35.39999999999998" as="sourcePoint"/>
                        <mxPoint x="9.5" y="30.480000000000018" as="targetPoint"/>
                        <Array as="points"/>
                    </mxGeometry>
                </mxCell>
                <mxCell id="hj5V9L2vQso6mufphsfm-390" value="D" style="text;strokeColor=none;align=center;fillColor=none;html=1;verticalAlign=middle;whiteSpace=wrap;rounded=0;container=0;" parent="hj5V9L2vQso6mufphsfm-386" vertex="1">
                    <mxGeometry y="4" width="14" height="12" as="geometry"/>
                </mxCell>
                <mxCell id="hj5V9L2vQso6mufphsfm-391" value="Q" style="text;strokeColor=none;align=center;fillColor=none;html=1;verticalAlign=middle;whiteSpace=wrap;rounded=0;container=0;" parent="hj5V9L2vQso6mufphsfm-386" vertex="1">
                    <mxGeometry x="16" y="4" width="14" height="12" as="geometry"/>
                </mxCell>
                <mxCell id="hj5V9L2vQso6mufphsfm-395" style="edgeStyle=orthogonalEdgeStyle;rounded=0;orthogonalLoop=1;jettySize=auto;html=1;exitX=1;exitY=0.5;exitDx=0;exitDy=0;entryX=0;entryY=0.5;entryDx=0;entryDy=0;endArrow=none;endFill=0;startArrow=none;" parent="1" source="hj5V9L2vQso6mufphsfm-380" target="hj5V9L2vQso6mufphsfm-390" edge="1">
                    <mxGeometry relative="1" as="geometry"/>
                </mxCell>
                <mxCell id="hj5V9L2vQso6mufphsfm-410" value="" style="group;connectable=1;" parent="1" vertex="1" connectable="0">
                    <mxGeometry x="-499.99" y="64" width="30" height="40" as="geometry"/>
                </mxCell>
                <mxCell id="hj5V9L2vQso6mufphsfm-404" value="" style="edgeStyle=none;orthogonalLoop=1;jettySize=auto;html=1;rounded=0;endArrow=none;endFill=0;" parent="hj5V9L2vQso6mufphsfm-410" edge="1">
                    <mxGeometry width="80" relative="1" as="geometry">
                        <mxPoint x="15" y="5" as="sourcePoint"/>
                        <mxPoint x="15" as="targetPoint"/>
                        <Array as="points"/>
                    </mxGeometry>
                </mxCell>
                <mxCell id="hj5V9L2vQso6mufphsfm-397" value="" style="edgeStyle=none;orthogonalLoop=1;jettySize=auto;html=1;rounded=0;endArrow=none;endFill=0;" parent="hj5V9L2vQso6mufphsfm-410" edge="1">
                    <mxGeometry width="80" relative="1" as="geometry">
                        <mxPoint x="10" y="40" as="sourcePoint"/>
                        <mxPoint x="10" as="targetPoint"/>
                        <Array as="points"/>
                    </mxGeometry>
                </mxCell>
                <mxCell id="hj5V9L2vQso6mufphsfm-398" value="" style="edgeStyle=none;orthogonalLoop=1;jettySize=auto;html=1;rounded=0;endArrow=none;endFill=0;" parent="hj5V9L2vQso6mufphsfm-410" edge="1">
                    <mxGeometry width="80" relative="1" as="geometry">
                        <mxPoint x="20" y="30" as="sourcePoint"/>
                        <mxPoint x="20" y="10" as="targetPoint"/>
                        <Array as="points"/>
                    </mxGeometry>
                </mxCell>
                <mxCell id="hj5V9L2vQso6mufphsfm-399" value="" style="edgeStyle=none;orthogonalLoop=1;jettySize=auto;html=1;rounded=0;endArrow=none;endFill=0;" parent="hj5V9L2vQso6mufphsfm-410" edge="1">
                    <mxGeometry width="80" relative="1" as="geometry">
                        <mxPoint x="30" y="20" as="sourcePoint"/>
                        <mxPoint x="20" y="20" as="targetPoint"/>
                        <Array as="points"/>
                    </mxGeometry>
                </mxCell>
                <mxCell id="hj5V9L2vQso6mufphsfm-400" value="" style="edgeStyle=none;orthogonalLoop=1;jettySize=auto;html=1;rounded=0;endArrow=none;endFill=0;" parent="hj5V9L2vQso6mufphsfm-410" edge="1">
                    <mxGeometry width="80" relative="1" as="geometry">
                        <mxPoint x="10" y="10" as="sourcePoint"/>
                        <mxPoint y="10" as="targetPoint"/>
                        <Array as="points"/>
                    </mxGeometry>
                </mxCell>
                <mxCell id="hj5V9L2vQso6mufphsfm-401" value="" style="edgeStyle=none;orthogonalLoop=1;jettySize=auto;html=1;rounded=0;endArrow=none;endFill=0;" parent="hj5V9L2vQso6mufphsfm-410" edge="1">
                    <mxGeometry width="80" relative="1" as="geometry">
                        <mxPoint x="10" y="30" as="sourcePoint"/>
                        <mxPoint y="30" as="targetPoint"/>
                        <Array as="points"/>
                    </mxGeometry>
                </mxCell>
                <mxCell id="hj5V9L2vQso6mufphsfm-402" value="" style="edgeStyle=none;orthogonalLoop=1;jettySize=auto;html=1;rounded=0;endArrow=none;endFill=0;" parent="hj5V9L2vQso6mufphsfm-410" edge="1">
                    <mxGeometry width="80" relative="1" as="geometry">
                        <mxPoint x="20" y="10" as="sourcePoint"/>
                        <mxPoint x="10" as="targetPoint"/>
                        <Array as="points"/>
                    </mxGeometry>
                </mxCell>
                <mxCell id="hj5V9L2vQso6mufphsfm-403" value="" style="edgeStyle=none;orthogonalLoop=1;jettySize=auto;html=1;rounded=0;endArrow=none;endFill=0;" parent="hj5V9L2vQso6mufphsfm-410" edge="1">
                    <mxGeometry width="80" relative="1" as="geometry">
                        <mxPoint x="20" y="30" as="sourcePoint"/>
                        <mxPoint x="10" y="40" as="targetPoint"/>
                        <Array as="points"/>
                    </mxGeometry>
                </mxCell>
                <mxCell id="hj5V9L2vQso6mufphsfm-411" value="" style="group;connectable=1;" parent="1" vertex="1" connectable="0">
                    <mxGeometry x="-639.99" y="84" width="30" height="40" as="geometry"/>
                </mxCell>
                <mxCell id="hj5V9L2vQso6mufphsfm-412" value="" style="edgeStyle=none;orthogonalLoop=1;jettySize=auto;html=1;rounded=0;endArrow=none;endFill=0;" parent="hj5V9L2vQso6mufphsfm-411" edge="1">
                    <mxGeometry width="80" relative="1" as="geometry">
                        <mxPoint x="15" y="5" as="sourcePoint"/>
                        <mxPoint x="15" as="targetPoint"/>
                        <Array as="points"/>
                    </mxGeometry>
                </mxCell>
                <mxCell id="hj5V9L2vQso6mufphsfm-413" value="" style="edgeStyle=none;orthogonalLoop=1;jettySize=auto;html=1;rounded=0;endArrow=none;endFill=0;" parent="hj5V9L2vQso6mufphsfm-411" edge="1">
                    <mxGeometry width="80" relative="1" as="geometry">
                        <mxPoint x="10" y="40" as="sourcePoint"/>
                        <mxPoint x="10" as="targetPoint"/>
                        <Array as="points"/>
                    </mxGeometry>
                </mxCell>
                <mxCell id="hj5V9L2vQso6mufphsfm-414" value="" style="edgeStyle=none;orthogonalLoop=1;jettySize=auto;html=1;rounded=0;endArrow=none;endFill=0;" parent="hj5V9L2vQso6mufphsfm-411" edge="1">
                    <mxGeometry width="80" relative="1" as="geometry">
                        <mxPoint x="20" y="30" as="sourcePoint"/>
                        <mxPoint x="20" y="10" as="targetPoint"/>
                        <Array as="points"/>
                    </mxGeometry>
                </mxCell>
                <mxCell id="hj5V9L2vQso6mufphsfm-415" value="" style="edgeStyle=none;orthogonalLoop=1;jettySize=auto;html=1;rounded=0;endArrow=none;endFill=0;" parent="hj5V9L2vQso6mufphsfm-411" edge="1">
                    <mxGeometry width="80" relative="1" as="geometry">
                        <mxPoint x="30" y="20" as="sourcePoint"/>
                        <mxPoint x="20" y="20" as="targetPoint"/>
                        <Array as="points"/>
                    </mxGeometry>
                </mxCell>
                <mxCell id="hj5V9L2vQso6mufphsfm-416" value="" style="edgeStyle=none;orthogonalLoop=1;jettySize=auto;html=1;rounded=0;endArrow=none;endFill=0;" parent="hj5V9L2vQso6mufphsfm-411" edge="1">
                    <mxGeometry width="80" relative="1" as="geometry">
                        <mxPoint x="10" y="10" as="sourcePoint"/>
                        <mxPoint y="10" as="targetPoint"/>
                        <Array as="points"/>
                    </mxGeometry>
                </mxCell>
                <mxCell id="hj5V9L2vQso6mufphsfm-417" value="" style="edgeStyle=none;orthogonalLoop=1;jettySize=auto;html=1;rounded=0;endArrow=none;endFill=0;" parent="hj5V9L2vQso6mufphsfm-411" edge="1">
                    <mxGeometry width="80" relative="1" as="geometry">
                        <mxPoint x="10" y="30" as="sourcePoint"/>
                        <mxPoint y="30" as="targetPoint"/>
                        <Array as="points"/>
                    </mxGeometry>
                </mxCell>
                <mxCell id="hj5V9L2vQso6mufphsfm-418" value="" style="edgeStyle=none;orthogonalLoop=1;jettySize=auto;html=1;rounded=0;endArrow=none;endFill=0;" parent="hj5V9L2vQso6mufphsfm-411" edge="1">
                    <mxGeometry width="80" relative="1" as="geometry">
                        <mxPoint x="20" y="10" as="sourcePoint"/>
                        <mxPoint x="10" as="targetPoint"/>
                        <Array as="points"/>
                    </mxGeometry>
                </mxCell>
                <mxCell id="hj5V9L2vQso6mufphsfm-419" value="" style="edgeStyle=none;orthogonalLoop=1;jettySize=auto;html=1;rounded=0;endArrow=none;endFill=0;" parent="hj5V9L2vQso6mufphsfm-411" edge="1">
                    <mxGeometry width="80" relative="1" as="geometry">
                        <mxPoint x="20" y="30" as="sourcePoint"/>
                        <mxPoint x="10" y="40" as="targetPoint"/>
                        <Array as="points"/>
                    </mxGeometry>
                </mxCell>
                <mxCell id="hj5V9L2vQso6mufphsfm-421" style="edgeStyle=orthogonalEdgeStyle;rounded=0;orthogonalLoop=1;jettySize=auto;html=1;exitX=1;exitY=0.5;exitDx=0;exitDy=0;entryX=0;entryY=0.75;entryDx=0;entryDy=0;" parent="1" source="hj5V9L2vQso6mufphsfm-391" target="hj5V9L2vQso6mufphsfm-410" edge="1">
                    <mxGeometry relative="1" as="geometry">
                        <Array as="points">
                            <mxPoint x="-509.99" y="104"/>
                            <mxPoint x="-509.99" y="94"/>
                        </Array>
                    </mxGeometry>
                </mxCell>
                <mxCell id="hj5V9L2vQso6mufphsfm-531" style="edgeStyle=orthogonalEdgeStyle;rounded=0;orthogonalLoop=1;jettySize=auto;html=1;exitX=1;exitY=0.5;exitDx=0;exitDy=0;" parent="1" source="hj5V9L2vQso6mufphsfm-410" edge="1">
                    <mxGeometry relative="1" as="geometry">
                        <mxPoint x="-430" y="84" as="targetPoint"/>
                    </mxGeometry>
                </mxCell>
                <mxCell id="hj5V9L2vQso6mufphsfm-541" style="edgeStyle=orthogonalEdgeStyle;rounded=0;orthogonalLoop=1;jettySize=auto;html=1;entryX=0;entryY=0.25;entryDx=0;entryDy=0;" parent="1" target="hj5V9L2vQso6mufphsfm-410" edge="1">
                    <mxGeometry relative="1" as="geometry">
                        <mxPoint x="-690" y="74" as="sourcePoint"/>
                    </mxGeometry>
                </mxCell>
                <mxCell id="11" style="edgeStyle=none;html=1;exitX=0.5;exitY=1;exitDx=0;exitDy=0;entryX=0.5;entryY=0;entryDx=0;entryDy=0;" edge="1" parent="1" source="hj5V9L2vQso6mufphsfm-548" target="hj5V9L2vQso6mufphsfm-410">
                    <mxGeometry relative="1" as="geometry"/>
                </mxCell>
                <mxCell id="hj5V9L2vQso6mufphsfm-548" value="Mode" style="text;strokeColor=none;align=center;fillColor=none;html=1;verticalAlign=middle;whiteSpace=wrap;rounded=0;" parent="1" vertex="1">
                    <mxGeometry x="-499.99" y="40" width="30" height="10" as="geometry"/>
                </mxCell>
                <mxCell id="hj5V9L2vQso6mufphsfm-561" value="TCK" style="text;strokeColor=none;align=center;fillColor=none;html=1;verticalAlign=middle;whiteSpace=wrap;rounded=0;" parent="1" vertex="1">
                    <mxGeometry x="-628.98" y="154" width="25.99" height="20" as="geometry"/>
                </mxCell>
                <mxCell id="hj5V9L2vQso6mufphsfm-564" style="edgeStyle=orthogonalEdgeStyle;rounded=0;orthogonalLoop=1;jettySize=auto;html=1;exitX=0.5;exitY=0;exitDx=0;exitDy=0;entryX=0;entryY=0.75;entryDx=0;entryDy=0;" parent="1" source="hj5V9L2vQso6mufphsfm-562" target="hj5V9L2vQso6mufphsfm-387" edge="1">
                    <mxGeometry relative="1" as="geometry">
                        <Array as="points">
                            <mxPoint x="-565" y="124"/>
                        </Array>
                    </mxGeometry>
                </mxCell>
                <mxCell id="hj5V9L2vQso6mufphsfm-562" value="UpdateDR" style="text;strokeColor=none;align=center;fillColor=none;html=1;verticalAlign=middle;whiteSpace=wrap;rounded=0;" parent="1" vertex="1">
                    <mxGeometry x="-585" y="154" width="40" height="20" as="geometry"/>
                </mxCell>
                <mxCell id="hj5V9L2vQso6mufphsfm-567" style="edgeStyle=orthogonalEdgeStyle;rounded=0;orthogonalLoop=1;jettySize=auto;html=1;exitX=0.5;exitY=1;exitDx=0;exitDy=0;entryX=0.5;entryY=0;entryDx=0;entryDy=0;" parent="1" edge="1">
                    <mxGeometry relative="1" as="geometry">
                        <mxPoint x="-624.99" y="84" as="targetPoint"/>
                        <mxPoint x="-624.9899999999999" y="50" as="sourcePoint"/>
                    </mxGeometry>
                </mxCell>
                <mxCell id="7" value="Data In" style="text;strokeColor=#2D7600;align=center;fillColor=#60a917;html=1;verticalAlign=middle;whiteSpace=wrap;rounded=0;fontColor=#ffffff;" vertex="1" parent="1">
                    <mxGeometry x="-740" y="69" width="50" height="10" as="geometry"/>
                </mxCell>
                <mxCell id="8" value="Scan In" style="text;strokeColor=#6F0000;align=center;fillColor=#a20025;html=1;verticalAlign=middle;whiteSpace=wrap;rounded=0;fontColor=#ffffff;" vertex="1" parent="1">
                    <mxGeometry x="-740" y="109" width="50" height="10" as="geometry"/>
                </mxCell>
                <mxCell id="9" value="Data Out" style="text;strokeColor=#2D7600;align=center;fillColor=#60a917;html=1;verticalAlign=middle;whiteSpace=wrap;rounded=0;fontColor=#ffffff;" vertex="1" parent="1">
                    <mxGeometry x="-430" y="79" width="60" height="10" as="geometry"/>
                </mxCell>
                <mxCell id="10" value="Scan Out" style="text;strokeColor=#6F0000;align=center;fillColor=#a20025;html=1;verticalAlign=middle;whiteSpace=wrap;rounded=0;fontColor=#ffffff;" vertex="1" parent="1">
                    <mxGeometry x="-430" y="30" width="60" height="10" as="geometry"/>
                </mxCell>
                <mxCell id="14" style="edgeStyle=orthogonalEdgeStyle;rounded=0;orthogonalLoop=1;jettySize=auto;html=1;exitX=0.5;exitY=0;exitDx=0;exitDy=0;entryX=0;entryY=0.75;entryDx=0;entryDy=0;strokeColor=#33FF33;" edge="1" parent="1" source="hj5V9L2vQso6mufphsfm-561" target="hj5V9L2vQso6mufphsfm-376">
                    <mxGeometry relative="1" as="geometry">
                        <Array as="points">
                            <mxPoint x="-616" y="124"/>
                        </Array>
                        <mxPoint x="-615" y="154" as="sourcePoint"/>
                        <mxPoint x="-599.9899999999999" y="124" as="targetPoint"/>
                    </mxGeometry>
                </mxCell>
                <mxCell id="hj5V9L2vQso6mufphsfm-539" style="edgeStyle=orthogonalEdgeStyle;rounded=0;orthogonalLoop=1;jettySize=auto;html=1;entryX=0;entryY=0.25;entryDx=0;entryDy=0;exitX=1;exitY=0.5;exitDx=0;exitDy=0;" parent="1" target="hj5V9L2vQso6mufphsfm-411" edge="1" source="7">
                    <mxGeometry relative="1" as="geometry">
                        <mxPoint x="-680" y="74" as="sourcePoint"/>
                        <Array as="points">
                            <mxPoint x="-660" y="74"/>
                            <mxPoint x="-660" y="94"/>
                        </Array>
                    </mxGeometry>
                </mxCell>
                <mxCell id="20" value="" style="ellipse;whiteSpace=wrap;html=1;strokeColor=#FFFFFF;fillColor=#000000;" vertex="1" parent="1">
                    <mxGeometry x="-663" y="71" width="6" height="6" as="geometry"/>
                </mxCell>
                <mxCell id="31" style="edgeStyle=orthogonalEdgeStyle;rounded=0;orthogonalLoop=1;jettySize=auto;html=1;entryX=0;entryY=0.75;entryDx=0;entryDy=0;exitX=1;exitY=0.5;exitDx=0;exitDy=0;" edge="1" parent="1" source="8" target="hj5V9L2vQso6mufphsfm-411">
                    <mxGeometry relative="1" as="geometry">
                        <mxPoint x="-650.01" y="113.82999999999998" as="targetPoint"/>
                        <mxPoint x="-690" y="114" as="sourcePoint"/>
                        <Array as="points">
                            <mxPoint x="-670" y="114"/>
                            <mxPoint x="-670" y="114"/>
                        </Array>
                    </mxGeometry>
                </mxCell>
                <mxCell id="32" style="edgeStyle=orthogonalEdgeStyle;rounded=0;orthogonalLoop=1;jettySize=auto;html=1;entryX=0;entryY=0.5;entryDx=0;entryDy=0;exitX=1;exitY=0.5;exitDx=0;exitDy=0;" edge="1" parent="1" source="hj5V9L2vQso6mufphsfm-411" target="hj5V9L2vQso6mufphsfm-379">
                    <mxGeometry relative="1" as="geometry">
                        <mxPoint x="-629.99" y="124" as="targetPoint"/>
                        <mxPoint x="-680" y="124" as="sourcePoint"/>
                    </mxGeometry>
                </mxCell>
                <mxCell id="33" style="edgeStyle=orthogonalEdgeStyle;rounded=0;orthogonalLoop=1;jettySize=auto;html=1;entryX=0;entryY=0.5;entryDx=0;entryDy=0;exitX=1;exitY=0.5;exitDx=0;exitDy=0;" edge="1" parent="1" source="hj5V9L2vQso6mufphsfm-380" target="10">
                    <mxGeometry relative="1" as="geometry">
                        <mxPoint x="-589.99" y="114.00000000000003" as="targetPoint"/>
                        <mxPoint x="-599.99" y="113.99999999999997" as="sourcePoint"/>
                        <Array as="points">
                            <mxPoint x="-560" y="104"/>
                            <mxPoint x="-560" y="35"/>
                        </Array>
                    </mxGeometry>
                </mxCell>
                <mxCell id="18" value="" style="ellipse;whiteSpace=wrap;html=1;strokeColor=#FFFFFF;fillColor=#000000;" vertex="1" parent="1">
                    <mxGeometry x="-563" y="101" width="6" height="6" as="geometry"/>
                </mxCell>
                <mxCell id="34" value="ShiftDR" style="text;strokeColor=none;align=center;fillColor=none;html=1;verticalAlign=middle;whiteSpace=wrap;rounded=0;" vertex="1" parent="1">
                    <mxGeometry x="-644.99" y="30" width="40" height="20" as="geometry"/>
                </mxCell>
                <mxCell id="35" value="&lt;font style=&quot;font-size: 8px;&quot;&gt;&lt;i style=&quot;&quot;&gt;From Logic or Pin&lt;/i&gt;&lt;/font&gt;" style="text;strokeColor=none;align=center;fillColor=none;html=1;verticalAlign=middle;whiteSpace=wrap;rounded=0;" vertex="1" parent="1">
                    <mxGeometry x="-752.5" y="79" width="75" height="13" as="geometry"/>
                </mxCell>
                <mxCell id="36" value="&lt;font style=&quot;font-size: 8px;&quot;&gt;&lt;i style=&quot;&quot;&gt;From Last BSR&lt;/i&gt;&lt;/font&gt;" style="text;strokeColor=none;align=center;fillColor=none;html=1;verticalAlign=middle;whiteSpace=wrap;rounded=0;" vertex="1" parent="1">
                    <mxGeometry x="-752.5" y="119" width="75" height="13" as="geometry"/>
                </mxCell>
                <mxCell id="37" value="&lt;font style=&quot;font-size: 8px;&quot;&gt;&lt;i style=&quot;&quot;&gt;To Logic or Pin&lt;/i&gt;&lt;/font&gt;" style="text;strokeColor=none;align=center;fillColor=none;html=1;verticalAlign=middle;whiteSpace=wrap;rounded=0;" vertex="1" parent="1">
                    <mxGeometry x="-437.5" y="38.5" width="75" height="13" as="geometry"/>
                </mxCell>
                <mxCell id="38" value="&lt;font style=&quot;font-size: 8px;&quot;&gt;&lt;i style=&quot;&quot;&gt;To Next BSR&lt;/i&gt;&lt;/font&gt;" style="text;strokeColor=none;align=center;fillColor=none;html=1;verticalAlign=middle;whiteSpace=wrap;rounded=0;" vertex="1" parent="1">
                    <mxGeometry x="-437.5" y="88" width="75" height="13" as="geometry"/>
                </mxCell>
            </root>
        </mxGraphModel>
    </diagram>
</mxfile>